<svg width="25" height="24" viewBox="0 0 25 24" fill="none" xmlns="http://www.w3.org/2000/svg">
<path d="M12.5216 0.0899811C5.90733 0.0899811 0.543823 5.54393 0.543823 12.2723C0.543823 17.6548 3.97582 22.2213 8.73496 23.8322C9.33358 23.9449 9.55334 23.5679 9.55334 23.2461C9.55334 22.9556 9.54224 21.996 9.53708 20.978C6.20485 21.7149 5.50171 19.5406 5.50171 19.5406C4.95685 18.1325 4.17179 17.7581 4.17179 17.7581C3.08505 17.002 4.25371 17.0175 4.25371 17.0175C5.45648 17.1032 6.08981 18.2729 6.08981 18.2729C7.1581 20.1353 8.89186 19.5969 9.57536 19.2856C9.68286 18.4985 9.99328 17.9606 10.3358 17.6566C7.67539 17.3486 4.8787 16.304 4.8787 11.636C4.8787 10.3059 5.3466 9.21917 6.11281 8.36603C5.98845 8.05898 5.57847 6.82012 6.22885 5.14207C6.22885 5.14207 7.23467 4.81465 9.52359 6.39082C10.479 6.1209 11.5037 5.98553 12.5216 5.98089C13.5395 5.98553 14.565 6.1209 15.5222 6.39082C17.8084 4.81465 18.8128 5.14207 18.8128 5.14207C19.4647 6.82012 19.0546 8.05898 18.9302 8.36603C19.6982 9.21917 20.1629 10.3059 20.1629 11.636C20.1629 16.3151 17.3609 17.3453 14.6937 17.6469C15.1233 18.025 15.5061 18.7664 15.5061 19.9029C15.5061 21.5328 15.4923 22.8447 15.4923 23.2461C15.4923 23.5703 15.7079 23.9502 16.315 23.8306C21.0716 22.2179 24.4992 17.653 24.4992 12.2723C24.4992 5.54393 19.1365 0.0899811 12.5216 0.0899811Z" fill="#203444"/>
<path d="M5.08042 17.5812C5.05404 17.6419 4.96042 17.6598 4.87514 17.6183C4.78826 17.5785 4.73947 17.496 4.76763 17.4353C4.79342 17.373 4.88723 17.3558 4.97391 17.3972C5.06099 17.4371 5.11057 17.5204 5.08042 17.5812Z" fill="#203444"/>
<path d="M5.56552 18.1315C5.5084 18.1854 5.39673 18.1603 5.32096 18.0752C5.24261 17.9903 5.22794 17.8767 5.28585 17.822C5.34476 17.7682 5.45306 17.7934 5.53161 17.8783C5.60995 17.9643 5.62523 18.077 5.56552 18.1315Z" fill="#203444"/>
<path d="M6.03787 18.8331C5.96448 18.885 5.84448 18.8364 5.7703 18.728C5.69691 18.6197 5.69691 18.4898 5.77189 18.4377C5.84627 18.3857 5.96448 18.4325 6.03965 18.54C6.11284 18.65 6.11284 18.7801 6.03787 18.8331Z" fill="#203444"/>
<path d="M6.68488 19.511C6.61923 19.5846 6.47939 19.5648 6.37705 19.4644C6.27232 19.3661 6.24316 19.2267 6.30901 19.1531C6.37546 19.0792 6.51609 19.1 6.61923 19.1997C6.72316 19.2977 6.7549 19.4381 6.68488 19.511Z" fill="#203444"/>
<path d="M7.57744 19.9046C7.54849 20 7.41381 20.0434 7.27814 20.0028C7.14267 19.961 7.05401 19.8493 7.08138 19.7528C7.10954 19.6568 7.24482 19.6116 7.38148 19.655C7.51675 19.6966 7.60561 19.8075 7.57744 19.9046Z" fill="#203444"/>
<path d="M8.55768 19.9776C8.56105 20.0781 8.44601 20.1614 8.3036 20.163C8.16039 20.1664 8.04456 20.0851 8.04297 19.9863C8.04297 19.8848 8.15543 19.8023 8.29864 19.7999C8.44105 19.797 8.55768 19.8777 8.55768 19.9776Z" fill="#203444"/>
<path d="M9.46979 19.8196C9.48685 19.9177 9.38787 20.0183 9.24645 20.045C9.10741 20.071 8.97868 20.0105 8.96103 19.9132C8.94378 19.8128 9.04454 19.7121 9.18338 19.6861C9.325 19.6611 9.45174 19.72 9.46979 19.8196Z" fill="#203444"/>
</svg>
