<svg width="25" height="24" viewBox="0 0 25 24" fill="none" xmlns="http://www.w3.org/2000/svg">
<path fill-rule="evenodd" clip-rule="evenodd" d="M12.5 0C5.87258 0 0.5 5.37258 0.5 12C0.5 18.6274 5.87258 24 12.5 24C19.1274 24 24.5 18.6274 24.5 12C24.5 5.37258 19.1274 0 12.5 0ZM6.26081 9.93892H8.98027V18.1098H6.26081V9.93892ZM9.15938 7.41135C9.14173 6.6102 8.56883 6 7.63852 6C6.70821 6 6.1 6.6102 6.1 7.41135C6.1 8.1959 6.69023 8.82367 7.60322 8.82367H7.62059C8.56883 8.82367 9.15938 8.1959 9.15938 7.41135ZM15.6566 9.74706C17.4461 9.74706 18.7877 10.9151 18.7877 13.4249L18.7876 18.1098H16.0682V13.7384C16.0682 12.6404 15.6747 11.8911 14.6903 11.8911C13.9389 11.8911 13.4914 12.3962 13.2949 12.8841C13.223 13.0589 13.2053 13.3025 13.2053 13.5467V18.11H10.4855C10.4855 18.11 10.5214 10.7059 10.4855 9.93914H13.2053V11.0965C13.5663 10.5401 14.2127 9.74706 15.6566 9.74706Z" fill="#203444"/>
</svg>
