<svg width="25" height="24" viewBox="0 0 25 24" fill="none" xmlns="http://www.w3.org/2000/svg">
<path fill-rule="evenodd" clip-rule="evenodd" d="M12.5 24C19.1274 24 24.5 18.6274 24.5 12C24.5 5.37258 19.1274 0 12.5 0C5.87258 0 0.5 5.37258 0.5 12C0.5 18.6274 5.87258 24 12.5 24ZM12.5 11.8937L5.303 8.2952C5.35727 7.34986 6.14107 6.6 7.1 6.6H17.9C18.8589 6.6 19.6427 7.34984 19.697 8.29515L12.5 11.8937ZM12.5 13.9061L19.7 10.3061V15.6C19.7 16.5941 18.8941 17.4 17.9 17.4H7.1C6.10589 17.4 5.3 16.5941 5.3 15.6V10.3062L12.5 13.9061Z" fill="#203444"/>
</svg>
